HIERARCHY
ROOT newVegas:Hips
{
	OFFSET 0.000000 96.479958 0.000000
	CHANNELS 6 Xposition Yposition Zposition Xrotation Yrotation Zrotation
	JOINT newVegas:Pelvis
	{
		OFFSET 0.000000 0.000000 0.000000
		CHANNELS 3 Xrotation Yrotation Zrotation
		JOINT newVegas:LeftUpLeg
		{
			OFFSET 18.735201 -5.666702 -4.541200
			CHANNELS 3 Xrotation Yrotation Zrotation
			JOINT newVegas:LeftLeg
			{
				OFFSET -0.021200 -31.938179 0.493100
				CHANNELS 3 Xrotation Yrotation Zrotation
				JOINT newVegas:LeftFoot
				{
					OFFSET 0.021200 -31.938179 -4.336299
					CHANNELS 3 Xrotation Yrotation Zrotation
					JOINT newVegas:LeftToeBase
					{
						OFFSET 0.943001 -26.722000 15.023500
						CHANNELS 3 Xrotation Yrotation Zrotation
						End Site
						{
							OFFSET 0.000000 30.670183 0.000000
						}
					}
				}
				JOINT newVegas:Left_PantLeg
				{
					OFFSET 0.663870 -9.044666 -1.108900
					CHANNELS 3 Xrotation Yrotation Zrotation
					End Site
					{
						OFFSET 1.415995 20.635357 0.000000
					}
				}
			}
		}
		JOINT newVegas:RightUpLeg
		{
			OFFSET -18.735201 -5.666702 -4.541200
			CHANNELS 3 Xrotation Yrotation Zrotation
			JOINT newVegas:RightLeg
			{
				OFFSET 0.018946 -31.938133 0.493100
				CHANNELS 3 Xrotation Yrotation Zrotation
				JOINT newVegas:RightFoot
				{
					OFFSET -0.018946 -31.938126 -4.336299
					CHANNELS 3 Xrotation Yrotation Zrotation
					JOINT newVegas:RightToeBase
					{
						OFFSET -0.943001 -26.722004 15.023500
						CHANNELS 3 Xrotation Yrotation Zrotation
						End Site
						{
							OFFSET 0.000000 30.670187 0.000000
						}
					}
				}
				JOINT newVegas:Right_PantLeg
				{
					OFFSET -0.661674 -9.044716 -1.108900
					CHANNELS 3 Xrotation Yrotation Zrotation
					End Site
					{
						OFFSET -1.415958 20.635269 0.000000
					}
				}
			}
		}
	}
	JOINT newVegas:Spine
	{
		OFFSET 0.000000 10.199997 -0.299500
		CHANNELS 3 Xrotation Yrotation Zrotation
		JOINT newVegas:Spine1
		{
			OFFSET 0.000000 11.900002 -1.516600
			CHANNELS 3 Xrotation Yrotation Zrotation
			JOINT newVegas:Spine2
			{
				OFFSET 0.000000 13.600006 -2.842500
				CHANNELS 3 Xrotation Yrotation Zrotation
				JOINT newVegas:Neck
				{
					OFFSET 0.000000 9.624100 -2.890100
					CHANNELS 3 Xrotation Yrotation Zrotation
					JOINT newVegas:Head
					{
						OFFSET 0.000000 14.068802 -1.351900
						CHANNELS 3 Xrotation Yrotation Zrotation
						JOINT newVegas:Hair_Back
						{
							OFFSET 0.000000 3.231903 -17.524799
							CHANNELS 3 Xrotation Yrotation Zrotation
							End Site
							{
								OFFSET 0.000000 19.849884 0.000000
							}
						}
						JOINT newVegas:Hair_Front
						{
							OFFSET 0.000000 31.260406 4.573800
							CHANNELS 3 Xrotation Yrotation Zrotation
							JOINT newVegas:Hair_Front1
							{
								OFFSET 0.000000 2.284103 11.993300
								CHANNELS 3 Xrotation Yrotation Zrotation
								JOINT newVegas:Hair_Front2
								{
									OFFSET 0.000000 2.284103 11.993300
									CHANNELS 3 Xrotation Yrotation Zrotation
									End Site
									{
										OFFSET 0.000000 12.208862 0.000000
									}
								}
							}
						}
						JOINT newVegas:Jowel
						{
							OFFSET 0.000000 -7.458206 6.864100
							CHANNELS 3 Xrotation Yrotation Zrotation
							End Site
							{
								OFFSET 0.000000 19.849884 0.000000
							}
						}
					}
				}
				JOINT newVegas:LeftShoulder
				{
					OFFSET 15.263000 10.923401 -0.547700
					CHANNELS 3 Xrotation Yrotation Zrotation
					JOINT newVegas:LeftArm
					{
						OFFSET 25.438599 -2.830597 -13.032500
						CHANNELS 3 Xrotation Yrotation Zrotation
						JOINT newVegas:LeftForeArm
						{
							OFFSET 29.960503 0.000000 0.000000
							CHANNELS 3 Xrotation Yrotation Zrotation
							JOINT newVegas:LeftHand
							{
								OFFSET 27.849251 0.000000 0.000000
								CHANNELS 3 Xrotation Yrotation Zrotation
								JOINT newVegas:LeftHandThumb1
								{
									OFFSET 4.487587 -3.305161 6.305391
									CHANNELS 3 Xrotation Yrotation Zrotation
									JOINT newVegas:LeftHandThumb2
									{
										OFFSET 5.480453 -3.164139 3.164143
										CHANNELS 3 Xrotation Yrotation Zrotation
										JOINT newVegas:LeftHandThumb3
										{
											OFFSET 5.159721 -2.978973 2.978967
											CHANNELS 3 Xrotation Yrotation Zrotation
											End Site
											{
												OFFSET 2.494507 5.926697 1.738678
											}
										}
									}
								}
								JOINT newVegas:LeftHandIndex1
								{
									OFFSET 18.578728 -0.527832 5.208049
									CHANNELS 3 Xrotation Yrotation Zrotation
									JOINT newVegas:LeftHandIndex2
									{
										OFFSET 3.192009 0.000000 0.000000
										CHANNELS 3 Xrotation Yrotation Zrotation
										JOINT newVegas:LeftHandIndex3
										{
											OFFSET 3.835129 0.000000 0.000000
											CHANNELS 3 Xrotation Yrotation Zrotation
											End Site
											{
												OFFSET -0.034599 3.816971 0.371180
											}
										}
									}
								}
								JOINT newVegas:LeftHandMiddle1
								{
									OFFSET 18.476105 0.000000 0.000000
									CHANNELS 3 Xrotation Yrotation Zrotation
									JOINT newVegas:LeftHandMiddle2
									{
										OFFSET 3.324875 0.000000 0.000000
										CHANNELS 3 Xrotation Yrotation Zrotation
										JOINT newVegas:LeftHandMiddle3
										{
											OFFSET 4.596550 0.000000 0.000000
											CHANNELS 3 Xrotation Yrotation Zrotation
											End Site
											{
												OFFSET 0.057701 4.578827 0.399218
											}
										}
									}
								}
								JOINT newVegas:LeftHandRing1
								{
									OFFSET 17.732719 0.121887 -4.201567
									CHANNELS 3 Xrotation Yrotation Zrotation
									JOINT newVegas:LeftHandRing2
									{
										OFFSET 2.733170 0.000000 0.000000
										CHANNELS 3 Xrotation Yrotation Zrotation
										JOINT newVegas:LeftHandRing3
										{
											OFFSET 3.178268 0.000000 0.000000
											CHANNELS 3 Xrotation Yrotation Zrotation
											End Site
											{
												OFFSET 0.119102 3.170624 0.185394
											}
										}
									}
								}
								JOINT newVegas:LeftHandPinky1
								{
									OFFSET 15.989624 -0.606689 -7.535461
									CHANNELS 3 Xrotation Yrotation Zrotation
									JOINT newVegas:LeftHandPinky2
									{
										OFFSET 2.538986 0.000000 0.000000
										CHANNELS 3 Xrotation Yrotation Zrotation
										JOINT newVegas:LeftHandPinky3
										{
											OFFSET 2.593102 0.000000 0.000000
											CHANNELS 3 Xrotation Yrotation Zrotation
											End Site
											{
												OFFSET -0.150902 2.584198 0.152708
											}
										}
									}
								}
							}
							JOINT newVegas:Left_Sleeve
							{
								OFFSET 0.267448 -0.649796 0.577675
								CHANNELS 3 Xrotation Yrotation Zrotation
								End Site
								{
									OFFSET 0.000000 15.991241 0.000000
								}
							}
							JOINT newVegas:Left_CapeC
							{
								OFFSET 15.715958 -8.608795 -6.935905
								CHANNELS 3 Xrotation Yrotation Zrotation
								JOINT newVegas:Left_CapeC1
								{
									OFFSET 0.000000 -8.688499 0.000000
									CHANNELS 3 Xrotation Yrotation Zrotation
									End Site
									{
										OFFSET 0.000000 8.688499 0.000000
									}
								}
							}
						}
						JOINT newVegas:Left_CapeB
						{
							OFFSET 26.118385 -8.608795 -7.079235
							CHANNELS 3 Xrotation Yrotation Zrotation
							JOINT newVegas:Left_CapeB1
							{
								OFFSET 0.000000 -8.688499 0.000000
								CHANNELS 3 Xrotation Yrotation Zrotation
								End Site
								{
									OFFSET 0.000000 8.688499 0.000000
								}
							}
						}
						JOINT newVegas:Left_CapeA
						{
							OFFSET 5.115639 -8.608795 -10.395809
							CHANNELS 3 Xrotation Yrotation Zrotation
							JOINT newVegas:Left_CapeA1
							{
								OFFSET 0.000000 -8.688499 0.000000
								CHANNELS 3 Xrotation Yrotation Zrotation
								End Site
								{
									OFFSET 0.000000 8.688499 0.000000
								}
							}
						}
					}
				}
				JOINT newVegas:RightShoulder
				{
					OFFSET -15.263000 10.923401 -0.547700
					CHANNELS 3 Xrotation Yrotation Zrotation
					JOINT newVegas:RightArm
					{
						OFFSET -25.438599 -2.830597 -13.032500
						CHANNELS 3 Xrotation Yrotation Zrotation
						JOINT newVegas:RightForeArm
						{
							OFFSET -29.960503 0.000000 0.000000
							CHANNELS 3 Xrotation Yrotation Zrotation
							JOINT newVegas:RightHand
							{
								OFFSET -27.849251 0.000000 0.000000
								CHANNELS 3 Xrotation Yrotation Zrotation
								JOINT newVegas:RightHandThumb1
								{
									OFFSET -4.487587 -3.305161 6.305391
									CHANNELS 3 Xrotation Yrotation Zrotation
									JOINT newVegas:RightHandThumb2
									{
										OFFSET -5.480453 -3.164139 3.164143
										CHANNELS 3 Xrotation Yrotation Zrotation
										JOINT newVegas:RightHandThumb3
										{
											OFFSET -5.159721 -2.978973 2.978967
											CHANNELS 3 Xrotation Yrotation Zrotation
											End Site
											{
												OFFSET -2.494507 5.926697 1.738678
											}
										}
									}
								}
								JOINT newVegas:RightHandIndex1
								{
									OFFSET -18.578728 -0.527832 5.208049
									CHANNELS 3 Xrotation Yrotation Zrotation
									JOINT newVegas:RightHandIndex2
									{
										OFFSET -3.192009 0.000000 0.000000
										CHANNELS 3 Xrotation Yrotation Zrotation
										JOINT newVegas:RightHandIndex3
										{
											OFFSET -3.835129 0.000000 0.000000
											CHANNELS 3 Xrotation Yrotation Zrotation
											End Site
											{
												OFFSET 0.034599 3.816971 0.371180
											}
										}
									}
								}
								JOINT newVegas:RightHandMiddle1
								{
									OFFSET -18.476105 0.000000 0.000000
									CHANNELS 3 Xrotation Yrotation Zrotation
									JOINT newVegas:RightHandMiddle2
									{
										OFFSET -3.324875 0.000000 0.000000
										CHANNELS 3 Xrotation Yrotation Zrotation
										JOINT newVegas:RightHandMiddle3
										{
											OFFSET -4.596550 0.000000 0.000000
											CHANNELS 3 Xrotation Yrotation Zrotation
											End Site
											{
												OFFSET -0.057701 4.578827 0.399218
											}
										}
									}
								}
								JOINT newVegas:RightHandRing1
								{
									OFFSET -17.732719 0.121887 -4.201567
									CHANNELS 3 Xrotation Yrotation Zrotation
									JOINT newVegas:RightHandRing2
									{
										OFFSET -2.733170 0.000000 0.000000
										CHANNELS 3 Xrotation Yrotation Zrotation
										JOINT newVegas:RightHandRing3
										{
											OFFSET -3.178268 0.000000 0.000000
											CHANNELS 3 Xrotation Yrotation Zrotation
											End Site
											{
												OFFSET -0.119102 3.170624 0.185394
											}
										}
									}
								}
								JOINT newVegas:RightHandPinky1
								{
									OFFSET -15.989624 -0.606689 -7.535461
									CHANNELS 3 Xrotation Yrotation Zrotation
									JOINT newVegas:RightHandPinky2
									{
										OFFSET -2.538986 0.000000 0.000000
										CHANNELS 3 Xrotation Yrotation Zrotation
										JOINT newVegas:RightHandPinky3
										{
											OFFSET -2.593102 0.000000 0.000000
											CHANNELS 3 Xrotation Yrotation Zrotation
											End Site
											{
												OFFSET 0.150902 2.584198 0.152708
											}
										}
									}
								}
							}
							JOINT newVegas:Right_CapeC
							{
								OFFSET -15.715958 -8.608795 -6.935905
								CHANNELS 3 Xrotation Yrotation Zrotation
								JOINT newVegas:Right_CapeC1
								{
									OFFSET 0.000000 -8.688499 0.000000
									CHANNELS 3 Xrotation Yrotation Zrotation
									End Site
									{
										OFFSET 0.000000 8.688499 0.000000
									}
								}
							}
							JOINT newVegas:Right_Sleeve
							{
								OFFSET -0.267448 -0.649994 0.577675
								CHANNELS 3 Xrotation Yrotation Zrotation
								End Site
								{
									OFFSET 0.000000 15.991302 0.000000
								}
							}
						}
						JOINT newVegas:Right_CapeA
						{
							OFFSET -5.115540 -8.608795 -10.395824
							CHANNELS 3 Xrotation Yrotation Zrotation
							JOINT newVegas:Right_CapeA1
							{
								OFFSET 0.000000 -8.688499 0.000000
								CHANNELS 3 Xrotation Yrotation Zrotation
								End Site
								{
									OFFSET 0.000000 8.688499 0.000000
								}
							}
						}
						JOINT newVegas:Right_CapeB
						{
							OFFSET -26.118187 -8.608795 -7.079266
							CHANNELS 3 Xrotation Yrotation Zrotation
							JOINT newVegas:Right_CapeB1
							{
								OFFSET 0.000000 -8.688499 0.000000
								CHANNELS 3 Xrotation Yrotation Zrotation
								End Site
								{
									OFFSET 0.000000 8.688499 0.000000
								}
							}
						}
					}
				}
				JOINT newVegas:Left_Collar
				{
					OFFSET 18.625099 8.655502 8.828100
					CHANNELS 3 Xrotation Yrotation Zrotation
					JOINT newVegas:Left_Collar1
					{
						OFFSET 14.783401 10.540405 -1.259500
						CHANNELS 3 Xrotation Yrotation Zrotation
						End Site
						{
							OFFSET 0.000000 18.199875 0.000000
						}
					}
				}
				JOINT newVegas:Collar_Back
				{
					OFFSET 0.000000 15.630707 -20.132601
					CHANNELS 3 Xrotation Yrotation Zrotation
					End Site
					{
						OFFSET 0.000000 22.523010 0.000000
					}
				}
				JOINT newVegas:Left_Peck
				{
					OFFSET 17.239599 -5.132599 25.482599
					CHANNELS 3 Xrotation Yrotation Zrotation
					End Site
					{
						OFFSET 0.000000 22.523010 0.000000
					}
				}
				JOINT newVegas:Right_Peck
				{
					OFFSET -17.239599 -5.132202 25.482599
					CHANNELS 3 Xrotation Yrotation Zrotation
					End Site
					{
						OFFSET 0.000000 22.523010 0.000000
					}
				}
				JOINT newVegas:Right_Collar
				{
					OFFSET -18.625099 8.655792 8.828100
					CHANNELS 3 Xrotation Yrotation Zrotation
					JOINT newVegas:Right_Collar1
					{
						OFFSET -14.783401 10.539993 -1.259500
						CHANNELS 3 Xrotation Yrotation Zrotation
						End Site
						{
							OFFSET 0.000000 18.199631 0.000000
						}
					}
				}
			}
		}
		JOINT newVegas:Belly
		{
			OFFSET 0.000000 -6.540398 9.014299
			CHANNELS 3 Xrotation Yrotation Zrotation
			End Site
			{
				OFFSET 0.000000 11.566666 0.000000
			}
		}
	}
	JOINT newVegas:ElvisFacialAnim_Joint
	{
		OFFSET 1.000000 -95.330101 -8.825800
		CHANNELS 3 Xrotation Yrotation Zrotation
		End Site
		{
			OFFSET 0.000000 35.315800 0.000000
		}
	}
}
MOTION
Frames: 4
Frame Time: 0.033333
-2.872378 45.925774 8.040964 13.967753 -73.269324 13.165544 0.000000 -0.000001 0.000000 -69.382202 -35.216343 60.406944 81.083054 -5.199278 5.204076 20.663308 -4.709247 -43.620320 -0.000000 -0.000000 0.000000 0.000001 0.000002 0.000001 -124.782734 15.637747 -20.764847 144.732801 16.635366 0.408559 2.292204 -1.561832 -3.661744 0.000000 -0.000001 0.000000 0.000002 0.000000 0.000000 15.484660 -10.626775 -10.152242 0.635338 -5.563707 -4.073426 0.713830 -5.597223 -3.968931 0.685860 2.874116 2.082265 0.685857 2.874125 2.082261 -0.000000 -0.000001 0.000001 0.685948 2.874063 2.082275 0.685844 2.874139 2.082264 0.000001 0.000001 0.000001 -0.000000 -0.000001 0.000001 11.083624 -44.542963 43.421586 -95.000500 10.274516 -37.203091 -64.776360 -39.648319 -52.524571 -4.544241 -27.139475 -19.255350 17.227648 17.613466 -11.396940 17.091206 14.422370 25.539527 0.000000 -0.000003 -0.000001 0.219071 -1.621418 -97.153929 2.207762 -1.384318 -60.043838 -0.000002 -0.000003 -0.000002 0.577716 1.809801 -112.124973 5.828217 -3.595963 -38.340468 -0.000000 -0.000000 0.000001 -4.289156 9.550782 -109.283184 2.175297 0.917418 -36.752025 0.000002 0.000001 0.000004 -7.966912 16.523805 -95.185236 0.018658 0.020246 -66.820219 0.000003 -0.000002 -0.000001 -0.000001 0.000000 0.000000 -0.000001 0.000000 0.000000 -0.000002 0.000000 0.000000 -0.000000 -0.000001 0.000000 -0.000000 -0.000001 -0.000000 -0.000000 -0.000001 0.000000 -0.000000 -0.000001 0.000000 31.660577 39.779572 -65.099865 -69.290869 12.779858 2.953761 33.094520 76.051233 -32.867646 -4.873585 -14.050612 -34.325956 9.347169 2.810558 -11.364520 16.169049 -43.266004 15.843566 0.000001 0.000000 -0.000000 17.076805 -0.396563 31.924342 -0.204401 -0.284216 112.811571 -0.000002 0.000000 0.000001 9.205493 -5.035872 102.738094 0.014971 -0.019182 61.018513 -0.000004 0.000002 0.000001 5.569140 -8.935205 107.329074 0.547974 -0.005764 41.263703 0.000001 -0.000001 -0.000001 6.511275 -17.148266 98.228031 0.007399 -0.015739 43.845747 0.000002 0.000005 0.000000 -0.000003 0.000000 -0.000000 -0.000003 0.000000 -0.000000 -0.000003 -0.000000 -0.000000 0.000000 -0.000001 0.000001 0.000000 -0.000001 -0.000001 0.000000 -0.000001 0.000001 0.000000 -0.000001 0.000001 -0.000000 -0.000001 -0.000001 -0.000000 -0.000001 -0.000001 -0.000000 -0.000001 -0.000001 -0.000000 -0.000001 -0.000001 -0.000000 -0.000001 -0.000001 -0.000000 -0.000001 -0.000001 -0.000000 -0.000001 -0.000001 -0.000001 -0.000000 -0.000001 0.000000 -0.000001 0.000000 
-2.881325 45.938179 8.038803 13.989546 -73.281619 13.219224 -0.000000 -0.000002 0.000000 -69.326386 -35.157149 60.413665 81.066764 -5.195203 5.198234 20.623189 -4.696452 -43.649212 -0.000000 0.000001 -0.000000 -0.000002 -0.000002 -0.000002 -124.784237 15.664899 -20.718660 144.728143 16.629783 0.413227 2.292052 -1.562122 -3.644923 0.000001 0.000000 -0.000000 0.000001 -0.000000 0.000000 15.472258 -10.632978 -10.158302 0.631749 -5.568223 -4.077120 0.709602 -5.600326 -3.972364 0.684477 2.874048 2.082109 0.684486 2.874031 2.082100 0.000001 -0.000001 -0.000001 0.684542 2.874087 2.082099 0.684425 2.873991 2.082120 0.000001 0.000000 0.000001 0.000001 -0.000001 -0.000002 11.070800 -44.539097 43.395802 -95.096874 10.351930 -37.213002 -64.680922 -39.727812 -52.492398 -4.580366 -27.096131 -19.292689 17.227646 17.613472 -11.396936 17.091206 14.422366 25.539529 0.000001 0.000000 0.000001 0.219072 -1.621416 -97.153922 2.207762 -1.384314 -60.043838 -0.000002 -0.000002 -0.000000 0.577717 1.809799 -112.124980 5.828215 -3.595961 -38.340468 0.000000 0.000001 0.000001 -4.289159 9.550782 -109.283191 2.175299 0.917413 -36.752025 -0.000003 0.000003 -0.000003 -7.966915 16.523812 -95.185236 0.018658 0.020247 -66.820212 0.000001 -0.000002 0.000002 -0.000003 0.000004 0.000000 -0.000003 0.000004 0.000000 -0.000003 0.000004 0.000000 -0.000000 0.000000 -0.000000 -0.000000 0.000000 -0.000000 -0.000000 0.000000 -0.000000 -0.000000 -0.000000 -0.000000 31.675296 39.727481 -65.194798 -69.310540 12.731248 3.008979 33.093564 76.039656 -32.892224 -4.874099 -14.039824 -34.334951 9.347167 2.810558 -11.364515 16.169047 -43.266007 15.843570 0.000002 -0.000000 -0.000008 17.076800 -0.396566 31.924349 -0.204401 -0.284211 112.811564 -0.000000 0.000002 -0.000000 9.205487 -5.035875 102.738094 0.014973 -0.019183 61.018526 -0.000000 0.000004 -0.000003 5.569138 -8.935207 107.329080 0.547976 -0.005762 41.263703 0.000001 -0.000001 -0.000001 6.511271 -17.148272 98.228031 0.007406 -0.015738 43.845747 0.000001 0.000002 -0.000001 -0.000000 0.000000 -0.000000 -0.000000 0.000000 -0.000000 -0.000000 0.000000 -0.000000 0.000000 0.000000 0.000002 -0.000000 0.000000 0.000000 0.000000 0.000000 0.000002 -0.000000 0.000000 0.000002 0.000001 -0.000001 -0.000002 0.000001 -0.000001 -0.000002 0.000001 -0.000001 -0.000002 0.000001 -0.000001 -0.000002 0.000001 -0.000001 -0.000002 0.000001 -0.000001 -0.000002 0.000001 -0.000001 -0.000002 0.000000 0.000000 -0.000001 -0.000000 -0.000002 0.000000 
-2.886380 45.955727 8.032663 14.023209 -73.305367 13.279532 0.000000 -0.000001 -0.000000 -69.264498 -35.093833 60.424798 81.042988 -5.186078 5.198828 20.585610 -4.683365 -43.678377 0.000000 -0.000000 0.000000 0.000003 0.000002 -0.000004 -124.768896 15.652109 -20.673137 144.716067 16.611093 0.415283 2.260935 -1.558425 -3.647553 0.000001 0.000000 0.000000 0.000001 -0.000000 0.000000 15.458069 -10.640928 -10.169202 0.628204 -5.571995 -4.081456 0.705451 -5.604008 -3.976902 0.683582 2.874551 2.082885 0.683574 2.874560 2.082885 -0.000001 -0.000001 0.000001 0.683581 2.874549 2.082883 0.683646 2.874575 2.082880 -0.000001 -0.000000 0.000001 -0.000001 -0.000001 -0.000001 11.063044 -44.516871 43.375967 -95.213602 10.427334 -37.239814 -64.595845 -39.789981 -52.457451 -4.612960 -27.061452 -19.357810 17.227644 17.613473 -11.396938 17.091203 14.422370 25.539525 0.000001 -0.000000 -0.000003 0.219072 -1.621414 -97.153929 2.207758 -1.384312 -60.043838 -0.000000 -0.000000 -0.000002 0.577723 1.809801 -112.124980 5.828216 -3.595956 -38.340468 -0.000001 -0.000001 0.000000 -4.289152 9.550782 -109.283191 2.175302 0.917413 -36.752029 0.000001 0.000001 -0.000001 -7.966908 16.523809 -95.185236 0.018658 0.020241 -66.820212 0.000000 -0.000004 0.000003 -0.000001 -0.000000 -0.000000 -0.000001 -0.000000 -0.000000 -0.000002 0.000000 -0.000000 -0.000000 -0.000001 -0.000000 -0.000000 -0.000001 -0.000000 -0.000000 -0.000001 -0.000000 -0.000000 -0.000001 -0.000000 31.686849 39.674516 -65.293371 -69.356466 12.676966 3.074606 33.273885 76.011263 -33.072449 -4.889772 -14.045907 -34.340367 9.347170 2.810556 -11.364518 16.169050 -43.266004 15.843565 0.000004 -0.000006 0.000000 17.076808 -0.396568 31.924342 -0.204402 -0.284219 112.811557 -0.000003 -0.000001 0.000002 9.205495 -5.035877 102.738094 0.014972 -0.019178 61.018526 0.000001 0.000003 -0.000005 5.569145 -8.935209 107.329080 0.547978 -0.005762 41.263700 0.000002 -0.000001 -0.000001 6.511283 -17.148271 98.228024 0.007399 -0.015734 43.845740 0.000001 -0.000000 0.000001 -0.000001 -0.000000 0.000000 -0.000001 -0.000000 0.000000 -0.000001 -0.000001 0.000000 0.000001 0.000000 0.000000 0.000001 0.000000 0.000000 0.000001 0.000000 0.000000 0.000001 -0.000000 0.000000 -0.000001 0.000000 -0.000000 -0.000001 0.000000 -0.000000 -0.000001 0.000000 -0.000000 -0.000001 0.000000 -0.000000 -0.000001 0.000000 -0.000000 -0.000001 0.000000 -0.000000 -0.000001 0.000000 -0.000000 -0.000001 0.000000 0.000000 0.000000 -0.000001 -0.000000 
-2.889174 45.975250 8.020390 14.067638 -73.344559 13.347566 -0.000001 -0.000002 0.000000 -69.148425 -35.018947 60.469482 80.990587 -5.168828 5.200726 20.547642 -4.674803 -43.752136 -0.000000 0.000001 -0.000000 0.000003 -0.000001 -0.000000 -124.770440 15.596291 -20.651941 144.695044 16.586662 0.414635 2.251206 -1.552410 -3.696542 0.000000 0.000000 -0.000000 0.000001 -0.000001 -0.000000 15.441936 -10.648429 -10.182234 0.623455 -5.576789 -4.090649 0.700580 -5.609712 -3.986153 0.682822 2.876228 2.085231 0.682815 2.876214 2.085227 0.000001 -0.000000 0.000002 0.682963 2.876251 2.085216 0.682754 2.876201 2.085233 0.000001 0.000000 0.000002 0.000001 -0.000000 0.000001 11.056763 -44.499260 43.367350 -95.327960 10.502311 -37.262408 -64.516731 -39.844742 -52.433969 -4.652425 -27.027561 -19.429561 17.227646 17.613470 -11.396941 17.091206 14.422370 25.539525 0.000000 0.000001 -0.000001 0.219073 -1.621414 -97.153929 2.207761 -1.384312 -60.043845 0.000000 0.000002 0.000002 0.577717 1.809801 -112.124973 5.828213 -3.595961 -38.340464 -0.000002 0.000001 0.000002 -4.289159 9.550782 -109.283191 2.175299 0.917411 -36.752029 -0.000001 0.000003 -0.000003 -7.966908 16.523809 -95.185236 0.018658 0.020246 -66.820212 -0.000004 -0.000003 0.000002 -0.000000 -0.000000 0.000002 -0.000000 -0.000000 0.000002 -0.000001 -0.000000 0.000002 -0.000000 -0.000001 -0.000000 -0.000000 -0.000001 -0.000000 -0.000000 -0.000001 -0.000000 -0.000000 -0.000001 -0.000000 31.671550 39.598930 -65.388959 -69.447239 12.607139 3.182121 33.619192 75.978225 -33.396787 -4.912970 -14.074413 -34.342454 9.347162 2.810556 -11.364520 16.169054 -43.266007 15.843566 0.000003 0.000000 -0.000002 17.076800 -0.396567 31.924342 -0.204401 -0.284220 112.811564 -0.000004 -0.000002 0.000003 9.205491 -5.035878 102.738094 0.014971 -0.019180 61.018526 -0.000000 0.000002 -0.000001 5.569142 -8.935206 107.329074 0.547974 -0.005763 41.263700 -0.000001 -0.000001 -0.000001 6.511274 -17.148269 98.228031 0.007404 -0.015739 43.845751 -0.000002 0.000003 -0.000001 -0.000001 -0.000000 -0.000000 -0.000001 -0.000001 -0.000000 -0.000001 -0.000001 0.000000 0.000000 -0.000001 -0.000001 0.000000 -0.000001 0.000001 0.000000 -0.000001 -0.000001 0.000000 -0.000001 0.000000 0.000001 0.000001 0.000004 0.000001 0.000001 0.000004 0.000001 0.000001 0.000004 0.000001 0.000001 0.000004 0.000001 0.000001 0.000004 0.000001 0.000001 0.000004 0.000001 0.000001 0.000004 0.000000 0.000001 0.000001 -0.000001 -0.000002 0.000000 
